<svg width="300" height="92" viewBox="0 0 300 92" fill="none" xmlns="http://www.w3.org/2000/svg">
<rect width="300" height="92" rx="4" fill="#5636D3"/>
<path fill-rule="evenodd" clip-rule="evenodd" d="M81.9591 40.7233C82.0721 40.8736 82.1693 41.0356 82.2486 41.2076C86.9256 42.3883 90.3687 46.2955 90.3687 50.921C90.3687 56.4785 85.3984 61 79.2893 61C76.0997 61 73.2213 59.7672 71.198 57.7984H63.5173C61.8643 57.7984 60.5193 56.5749 60.5193 55.0711C60.5193 54.2074 60.9634 53.4368 61.6543 52.9367C60.9634 52.4367 60.5193 51.666 60.5193 50.8023C60.5193 49.9387 60.9634 49.168 61.6543 48.6679C60.9634 48.1679 60.5193 47.3972 60.5193 46.5336C60.5193 45.6699 60.9634 44.8992 61.6543 44.3992C60.9634 43.8991 60.5193 43.1285 60.5193 42.2648C60.5193 40.761 61.8643 39.5375 63.5173 39.5375H65.217C64.8852 39.0987 64.6904 38.5678 64.6904 37.996C64.6904 37.4243 64.8852 36.8934 65.217 36.4545H59.998C58.3449 36.4545 57 35.2311 57 33.7273C57 32.2235 58.3449 31 59.998 31H75.9654C77.6184 31 78.9633 32.2235 78.9633 33.7273C78.9633 34.299 78.7685 34.8299 78.4367 35.2688H83.6558C85.3088 35.2688 86.6537 36.4922 86.6537 37.996C86.6537 39.4998 85.3088 40.7233 83.6558 40.7233H81.9591ZM85.3503 37.996C85.3503 37.1461 84.5902 36.4545 83.6558 36.4545H67.6884C66.754 36.4545 65.9939 37.1461 65.9939 37.996C65.9939 38.846 66.754 39.5375 67.6884 39.5375H79.4847H83.6558C84.5902 39.5375 85.3503 38.846 85.3503 37.996ZM58.3035 33.7273C58.3035 34.5772 59.0636 35.2688 59.998 35.2688H75.9654C76.8997 35.2688 77.6599 34.5772 77.6599 33.7273C77.6599 32.8773 76.8997 32.1858 75.9654 32.1858H59.998C59.0636 32.1858 58.3035 32.8773 58.3035 33.7273ZM79.4847 40.7233H63.5173C62.583 40.7233 61.8228 41.4148 61.8228 42.2648C61.8228 43.1148 62.583 43.8063 63.5173 43.8063H71.449C73.4559 41.9761 76.2297 40.8419 79.2893 40.8419C79.6042 40.8419 79.9158 40.8546 80.2241 40.8782C79.9986 40.7788 79.7472 40.7233 79.4847 40.7233ZM70.3354 44.9921H63.5173C62.5829 44.9921 61.8228 45.6836 61.8228 46.5336C61.8228 47.3836 62.5829 48.0751 63.5173 48.0751H68.6602C69.0235 46.9542 69.5955 45.9142 70.3354 44.9921ZM68.361 49.2608H63.5173C62.5829 49.2608 61.8228 49.9523 61.8228 50.8023C61.8228 51.6523 62.5829 52.3438 63.5173 52.3438H68.3208C68.2482 51.8788 68.2098 51.4039 68.2098 50.921C68.2098 50.3555 68.2621 49.8011 68.361 49.2608ZM61.8228 55.0711C61.8228 55.9211 62.5829 56.6126 63.5173 56.6126H70.1506C69.4499 55.6845 68.9157 54.645 68.5869 53.5296H63.5173C62.5829 53.5296 61.8228 54.2211 61.8228 55.0711ZM69.5133 50.921C69.5133 55.8247 73.8988 59.8142 79.2893 59.8142C84.6797 59.8142 89.0652 55.8247 89.0652 50.921C89.0652 46.0172 84.6797 42.0277 79.2893 42.0277C73.8988 42.0277 69.5133 46.0172 69.5133 50.921ZM77.6268 48.8945C77.6268 49.6148 78.3712 50.2009 79.2861 50.2009C81.0329 50.2009 82.4539 51.4026 82.4539 52.8797C82.4539 54.1371 81.4241 55.1943 80.0404 55.4812V55.7776C80.0404 56.1565 79.7026 56.4637 79.2861 56.4637C78.8696 56.4637 78.5319 56.1565 78.5319 55.7776V55.4812C77.1482 55.1943 76.1184 54.1371 76.1184 52.8797C76.1184 52.5008 76.4561 52.1936 76.8726 52.1936C77.2891 52.1936 77.6268 52.5008 77.6268 52.8797C77.6268 53.6002 78.3712 54.1863 79.2861 54.1863C80.2011 54.1863 80.9454 53.6002 80.9454 52.8797C80.9454 52.1593 80.2011 51.5732 79.2861 51.5732C77.5394 51.5732 76.1184 50.3715 76.1184 48.8945C76.1184 47.6371 77.1482 46.5799 78.5319 46.293V45.9361C78.5319 45.5573 78.8696 45.25 79.2861 45.25C79.7026 45.25 80.0404 45.5573 80.0404 45.9361V46.293C81.4241 46.5799 82.4539 47.6371 82.4539 48.8945C82.4539 49.2733 82.1162 49.5806 81.6997 49.5806C81.2832 49.5806 80.9454 49.2733 80.9454 48.8945C80.9454 48.174 80.2011 47.5879 79.2861 47.5879C78.3712 47.5879 77.6268 48.174 77.6268 48.8945Z" fill="#FF872C"/>
<path d="M82.2486 41.2076L82.0216 41.3123L82.0716 41.4207L82.1874 41.45L82.2486 41.2076ZM81.9591 40.7233V40.4733H81.4581L81.7593 40.8736L81.9591 40.7233ZM71.198 57.7984L71.3723 57.6192L71.2995 57.5484H71.198V57.7984ZM61.6543 52.9367L61.8009 53.1392L62.0807 52.9367L61.8009 52.7342L61.6543 52.9367ZM61.6543 48.6679L61.8009 48.8705L62.0807 48.6679L61.8009 48.4654L61.6543 48.6679ZM61.6543 44.3992L61.8009 44.6017L62.0807 44.3992L61.8009 44.1967L61.6543 44.3992ZM65.217 39.5375V39.7875H65.7195L65.4164 39.3867L65.217 39.5375ZM65.217 36.4545L65.4164 36.6053L65.7194 36.2045H65.217V36.4545ZM78.4367 35.2688L78.2373 35.118L77.9343 35.5188H78.4367V35.2688ZM71.449 43.8063V44.0563H71.5459L71.6175 43.991L71.449 43.8063ZM80.2241 40.8782L80.2051 41.1274L80.3249 40.6494L80.2241 40.8782ZM70.3354 44.9921L70.5304 45.1485L70.8565 44.7421H70.3354V44.9921ZM68.6602 48.0751V48.3251H68.842L68.8981 48.1521L68.6602 48.0751ZM68.361 49.2608L68.6069 49.3058L68.6609 49.0108H68.361V49.2608ZM68.3208 52.3438V52.5938H68.6128L68.5678 52.3053L68.3208 52.3438ZM70.1506 56.6126V56.8626H70.6525L70.3501 56.462L70.1506 56.6126ZM68.5869 53.5296L68.8267 53.4589L68.7738 53.2796H68.5869V53.5296ZM80.0404 55.4812L79.9896 55.2364L79.7904 55.2777V55.4812H80.0404ZM78.5319 55.4812H78.7819V55.2777L78.5827 55.2364L78.5319 55.4812ZM78.5319 46.293L78.5827 46.5378L78.7819 46.4965V46.293H78.5319ZM80.0404 46.293H79.7904V46.4965L79.9896 46.5378L80.0404 46.293ZM82.4756 41.1028C82.3888 40.9146 82.2825 40.7373 82.1588 40.573L81.7593 40.8736C81.8618 41.0099 81.9498 41.1567 82.0216 41.3123L82.4756 41.1028ZM90.6187 50.921C90.6187 46.1636 87.0801 42.1695 82.3098 40.9652L82.1874 41.45C86.7711 42.6071 90.1187 46.4273 90.1187 50.921H90.6187ZM79.2893 61.25C85.5137 61.25 90.6187 56.6384 90.6187 50.921H90.1187C90.1187 56.3187 85.2832 60.75 79.2893 60.75V61.25ZM71.0236 57.9775C73.0941 59.9922 76.0352 61.25 79.2893 61.25V60.75C76.1643 60.75 73.3485 59.5421 71.3723 57.6192L71.0236 57.9775ZM63.5173 58.0484H71.198V57.5484H63.5173V58.0484ZM60.2693 55.0711C60.2693 56.7347 61.749 58.0484 63.5173 58.0484V57.5484C61.9795 57.5484 60.7693 56.4151 60.7693 55.0711H60.2693ZM61.5078 52.7342C60.7599 53.2755 60.2693 54.1179 60.2693 55.0711H60.7693C60.7693 54.297 61.167 53.5981 61.8009 53.1392L61.5078 52.7342ZM60.2693 50.8023C60.2693 51.7556 60.7599 52.598 61.5078 53.1392L61.8009 52.7342C61.167 52.2754 60.7693 51.5764 60.7693 50.8023H60.2693ZM61.5078 48.4654C60.7599 49.0067 60.2693 49.8491 60.2693 50.8023H60.7693C60.7693 50.0283 61.167 49.3293 61.8009 48.8705L61.5078 48.4654ZM60.2693 46.5336C60.2693 47.4868 60.7599 48.3292 61.5078 48.8705L61.8009 48.4654C61.167 48.0066 60.7693 47.3076 60.7693 46.5336H60.2693ZM61.5078 44.1967C60.7599 44.7379 60.2693 45.5803 60.2693 46.5336H60.7693C60.7693 45.7595 61.167 45.0605 61.8009 44.6017L61.5078 44.1967ZM60.2693 42.2648C60.2693 43.218 60.7599 44.0604 61.5078 44.6017L61.8009 44.1967C61.167 43.7378 60.7693 43.0389 60.7693 42.2648H60.2693ZM63.5173 39.2875C61.749 39.2875 60.2693 40.6012 60.2693 42.2648H60.7693C60.7693 40.9208 61.9795 39.7875 63.5173 39.7875V39.2875ZM65.217 39.2875H63.5173V39.7875H65.217V39.2875ZM64.4404 37.996C64.4404 38.6261 64.6553 39.2093 65.0176 39.6883L65.4164 39.3867C65.115 38.9881 64.9404 38.5094 64.9404 37.996H64.4404ZM65.0176 36.3038C64.6554 36.7828 64.4404 37.366 64.4404 37.996H64.9404C64.9404 37.4826 65.115 37.004 65.4164 36.6053L65.0176 36.3038ZM59.998 36.7045H65.217V36.2045H59.998V36.7045ZM56.75 33.7273C56.75 35.3909 58.2296 36.7045 59.998 36.7045V36.2045C58.4602 36.2045 57.25 35.0712 57.25 33.7273H56.75ZM59.998 30.75C58.2296 30.75 56.75 32.0637 56.75 33.7273H57.25C57.25 32.3833 58.4602 31.25 59.998 31.25V30.75ZM75.9654 30.75H59.998V31.25H75.9654V30.75ZM79.2133 33.7273C79.2133 32.0637 77.7337 30.75 75.9654 30.75V31.25C77.5031 31.25 78.7133 32.3833 78.7133 33.7273H79.2133ZM78.6361 35.4195C78.9983 34.9405 79.2133 34.3573 79.2133 33.7273H78.7133C78.7133 34.2407 78.5387 34.7193 78.2373 35.118L78.6361 35.4195ZM83.6558 35.0188H78.4367V35.5188H83.6558V35.0188ZM86.9037 37.996C86.9037 36.3324 85.4241 35.0188 83.6558 35.0188V35.5188C85.1935 35.5188 86.4037 36.6521 86.4037 37.996H86.9037ZM83.6558 40.9733C85.4241 40.9733 86.9037 39.6596 86.9037 37.996H86.4037C86.4037 39.34 85.1935 40.4733 83.6558 40.4733V40.9733ZM81.9591 40.9733H83.6558V40.4733H81.9591V40.9733ZM83.6558 36.7045C84.4749 36.7045 85.1003 37.3059 85.1003 37.996H85.6003C85.6003 36.9863 84.7055 36.2045 83.6558 36.2045V36.7045ZM67.6884 36.7045H83.6558V36.2045H67.6884V36.7045ZM66.2439 37.996C66.2439 37.3059 66.8693 36.7045 67.6884 36.7045V36.2045C66.6387 36.2045 65.7439 36.9863 65.7439 37.996H66.2439ZM67.6884 39.2875C66.8693 39.2875 66.2439 38.6862 66.2439 37.996H65.7439C65.7439 39.0058 66.6387 39.7875 67.6884 39.7875V39.2875ZM79.4847 39.2875H67.6884V39.7875H79.4847V39.2875ZM83.6558 39.2875H79.4847V39.7875H83.6558V39.2875ZM85.1003 37.996C85.1003 38.6862 84.4749 39.2875 83.6558 39.2875V39.7875C84.7055 39.7875 85.6003 39.0058 85.6003 37.996H85.1003ZM59.998 35.0188C59.1789 35.0188 58.5535 34.4174 58.5535 33.7273H58.0535C58.0535 34.737 58.9483 35.5188 59.998 35.5188V35.0188ZM75.9654 35.0188H59.998V35.5188H75.9654V35.0188ZM77.4099 33.7273C77.4099 34.4174 76.7845 35.0188 75.9654 35.0188V35.5188C77.015 35.5188 77.9099 34.737 77.9099 33.7273H77.4099ZM75.9654 32.4358C76.7845 32.4358 77.4099 33.0371 77.4099 33.7273H77.9099C77.9099 32.7175 77.015 31.9358 75.9654 31.9358V32.4358ZM59.998 32.4358H75.9654V31.9358H59.998V32.4358ZM58.5535 33.7273C58.5535 33.0371 59.1789 32.4358 59.998 32.4358V31.9358C58.9483 31.9358 58.0535 32.7175 58.0535 33.7273H58.5535ZM63.5173 40.9733H79.4847V40.4733H63.5173V40.9733ZM62.0728 42.2648C62.0728 41.5746 62.6983 40.9733 63.5173 40.9733V40.4733C62.4677 40.4733 61.5728 41.255 61.5728 42.2648H62.0728ZM63.5173 43.5563C62.6983 43.5563 62.0728 42.9549 62.0728 42.2648H61.5728C61.5728 43.2746 62.4677 44.0563 63.5173 44.0563V43.5563ZM71.449 43.5563H63.5173V44.0563H71.449V43.5563ZM79.2893 40.5919C76.1678 40.5919 73.3338 41.7491 71.2805 43.6216L71.6175 43.991C73.578 42.2031 76.2916 41.0919 79.2893 41.0919V40.5919ZM80.2431 40.6289C79.9289 40.6049 79.6109 40.5919 79.2893 40.5919V41.0919C79.5975 41.0919 79.9027 41.1044 80.2051 41.1274L80.2431 40.6289ZM79.4847 40.9733C79.7119 40.9733 79.929 41.0213 80.1233 41.1069L80.3249 40.6494C80.0682 40.5363 79.7825 40.4733 79.4847 40.4733V40.9733ZM63.5173 45.2421H70.3354V44.7421H63.5173V45.2421ZM62.0728 46.5336C62.0728 45.8434 62.6982 45.2421 63.5173 45.2421V44.7421C62.4676 44.7421 61.5728 45.5238 61.5728 46.5336H62.0728ZM63.5173 47.8251C62.6982 47.8251 62.0728 47.2238 62.0728 46.5336H61.5728C61.5728 47.5434 62.4676 48.3251 63.5173 48.3251V47.8251ZM68.6602 47.8251H63.5173V48.3251H68.6602V47.8251ZM70.1404 44.8356C69.3825 45.7802 68.7955 46.847 68.4224 47.998L68.8981 48.1521C69.2516 47.0615 69.8086 46.0481 70.5304 45.1485L70.1404 44.8356ZM63.5173 49.5108H68.361V49.0108H63.5173V49.5108ZM62.0728 50.8023C62.0728 50.1121 62.6982 49.5108 63.5173 49.5108V49.0108C62.4676 49.0108 61.5728 49.7925 61.5728 50.8023H62.0728ZM63.5173 52.0938C62.6982 52.0938 62.0728 51.4925 62.0728 50.8023H61.5728C61.5728 51.8122 62.4676 52.5938 63.5173 52.5938V52.0938ZM68.3208 52.0938H63.5173V52.5938H68.3208V52.0938ZM67.9598 50.921C67.9598 51.4172 67.9993 51.905 68.0737 52.3824L68.5678 52.3053C68.4972 51.8527 68.4598 51.3907 68.4598 50.921H67.9598ZM68.1151 49.2158C68.0135 49.7706 67.9598 50.3401 67.9598 50.921H68.4598C68.4598 50.371 68.5107 49.8316 68.6069 49.3058L68.1151 49.2158ZM63.5173 56.3626C62.6982 56.3626 62.0728 55.7613 62.0728 55.0711H61.5728C61.5728 56.0809 62.4676 56.8626 63.5173 56.8626V56.3626ZM70.1506 56.3626H63.5173V56.8626H70.1506V56.3626ZM68.3471 53.6003C68.6848 54.7458 69.2331 55.8122 69.951 56.7632L70.3501 56.462C69.6668 55.5568 69.1466 54.5441 68.8267 53.4589L68.3471 53.6003ZM63.5173 53.7796H68.5869V53.2796H63.5173V53.7796ZM62.0728 55.0711C62.0728 54.3809 62.6982 53.7796 63.5173 53.7796V53.2796C62.4676 53.2796 61.5728 54.0613 61.5728 55.0711H62.0728ZM79.2893 59.5642C74.0141 59.5642 69.7633 55.6649 69.7633 50.921H69.2633C69.2633 55.9845 73.7835 60.0642 79.2893 60.0642V59.5642ZM88.8152 50.921C88.8152 55.6649 84.5644 59.5642 79.2893 59.5642V60.0642C84.795 60.0642 89.3152 55.9845 89.3152 50.921H88.8152ZM79.2893 42.2777C84.5644 42.2777 88.8152 46.177 88.8152 50.921H89.3152C89.3152 45.8574 84.795 41.7777 79.2893 41.7777V42.2777ZM69.7633 50.921C69.7633 46.177 74.0141 42.2777 79.2893 42.2777V41.7777C73.7835 41.7777 69.2633 45.8574 69.2633 50.921H69.7633ZM79.2861 49.9509C78.4503 49.9509 77.8768 49.4244 77.8768 48.8945H77.3768C77.3768 49.8053 78.2921 50.4509 79.2861 50.4509V49.9509ZM82.7039 52.8797C82.7039 51.2269 81.13 49.9509 79.2861 49.9509V50.4509C80.9357 50.4509 82.2039 51.5783 82.2039 52.8797H82.7039ZM80.0911 55.726C81.5593 55.4215 82.7039 54.2851 82.7039 52.8797H82.2039C82.2039 53.989 81.2889 54.967 79.9896 55.2364L80.0911 55.726ZM80.2904 55.7776V55.4812H79.7904V55.7776H80.2904ZM79.2861 56.7137C79.8179 56.7137 80.2904 56.3163 80.2904 55.7776H79.7904C79.7904 55.9967 79.5873 56.2137 79.2861 56.2137V56.7137ZM78.2819 55.7776C78.2819 56.3163 78.7544 56.7137 79.2861 56.7137V56.2137C78.9849 56.2137 78.7819 55.9967 78.7819 55.7776H78.2819ZM78.2819 55.4812V55.7776H78.7819V55.4812H78.2819ZM75.8684 52.8797C75.8684 54.2851 77.013 55.4215 78.4811 55.726L78.5827 55.2364C77.2834 54.967 76.3684 53.989 76.3684 52.8797H75.8684ZM76.8726 51.9436C76.3408 51.9436 75.8684 52.341 75.8684 52.8797H76.3684C76.3684 52.6607 76.5714 52.4436 76.8726 52.4436V51.9436ZM77.8768 52.8797C77.8768 52.341 77.4044 51.9436 76.8726 51.9436V52.4436C77.1738 52.4436 77.3768 52.6606 77.3768 52.8797H77.8768ZM79.2861 53.9363C78.4503 53.9363 77.8768 53.4097 77.8768 52.8797H77.3768C77.3768 53.7906 78.2921 54.4363 79.2861 54.4363V53.9363ZM80.6954 52.8797C80.6954 53.4097 80.122 53.9363 79.2861 53.9363V54.4363C80.2802 54.4363 81.1954 53.7906 81.1954 52.8797H80.6954ZM79.2861 51.8232C80.122 51.8232 80.6954 52.3497 80.6954 52.8797H81.1954C81.1954 51.9688 80.2802 51.3232 79.2861 51.3232V51.8232ZM75.8684 48.8945C75.8684 50.5472 77.4423 51.8232 79.2861 51.8232V51.3232C77.6365 51.3232 76.3684 50.1958 76.3684 48.8945H75.8684ZM78.4811 46.0482C77.013 46.3527 75.8684 47.4891 75.8684 48.8945H76.3684C76.3684 47.7852 77.2834 46.8072 78.5827 46.5378L78.4811 46.0482ZM78.2819 45.9361V46.293H78.7819V45.9361H78.2819ZM79.2861 45C78.7544 45 78.2819 45.3974 78.2819 45.9361H78.7819C78.7819 45.7171 78.9849 45.5 79.2861 45.5V45ZM80.2904 45.9361C80.2904 45.3974 79.8179 45 79.2861 45V45.5C79.5873 45.5 79.7904 45.7171 79.7904 45.9361H80.2904ZM80.2904 46.293V45.9361H79.7904V46.293H80.2904ZM82.7039 48.8945C82.7039 47.4891 81.5593 46.3527 80.0911 46.0482L79.9896 46.5378C81.2889 46.8072 82.2039 47.7852 82.2039 48.8945H82.7039ZM81.6997 49.8306C82.2315 49.8306 82.7039 49.4332 82.7039 48.8945H82.2039C82.2039 49.1135 82.0009 49.3306 81.6997 49.3306V49.8306ZM80.6954 48.8945C80.6954 49.4332 81.1679 49.8306 81.6997 49.8306V49.3306C81.3985 49.3306 81.1954 49.1135 81.1954 48.8945H80.6954ZM79.2861 47.8379C80.122 47.8379 80.6954 48.3645 80.6954 48.8945H81.1954C81.1954 47.9836 80.2802 47.3379 79.2861 47.3379V47.8379ZM77.8768 48.8945C77.8768 48.3645 78.4503 47.8379 79.2861 47.8379V47.3379C78.2921 47.3379 77.3768 47.9836 77.3768 48.8945H77.8768Z" fill="#FF872C"/>
<path d="M109.032 45.904C109.032 49.984 111.744 52.744 115.272 52.744C117.672 52.744 119.376 51.472 120.168 50.056V52.816C120.168 55.624 118.416 57.112 116.088 57.112C113.928 57.112 112.368 56.032 111.888 54.448H109.728C110.16 57.256 112.632 59.008 116.088 59.008C119.952 59.008 122.376 56.44 122.376 52.816V39.376H120.168V41.776C119.4 40.36 117.672 39.16 115.272 39.16C111.744 39.16 109.032 41.8 109.032 45.904ZM120.168 45.928C120.168 49.024 118.104 50.824 115.704 50.824C113.304 50.824 111.264 49 111.264 45.904C111.264 42.808 113.304 41.056 115.704 41.056C118.104 41.056 120.168 42.88 120.168 45.928Z" fill="white"/>
<path d="M138.547 45.928C138.547 41.776 135.643 39.16 131.899 39.16C128.179 39.16 125.251 41.776 125.251 45.928C125.251 50.104 128.083 52.744 131.803 52.744C135.547 52.744 138.547 50.104 138.547 45.928ZM127.483 45.928C127.483 42.616 129.571 41.056 131.875 41.056C134.131 41.056 136.315 42.616 136.315 45.928C136.315 49.264 134.083 50.824 131.803 50.824C129.523 50.824 127.483 49.264 127.483 45.928Z" fill="white"/>
<path d="M142.674 52.528H145.434V41.536H147.882V39.304H145.434V38.368C145.434 36.856 146.01 36.28 147.69 36.28V34C144.234 34 142.674 35.32 142.674 38.368V39.304H141.114V41.536H142.674V52.528Z" fill="white"/>
<path d="M150.307 52.528H153.043V39.304H150.307V52.528ZM151.699 37.552C152.659 37.552 153.427 36.784 153.427 35.8C153.427 34.816 152.659 34.048 151.699 34.048C150.715 34.048 149.947 34.816 149.947 35.8C149.947 36.784 150.715 37.552 151.699 37.552Z" fill="white"/>
<path d="M166.019 52.528H168.731V44.728C168.731 41.032 166.403 39.088 163.307 39.088C161.723 39.088 160.259 39.736 159.371 40.816V39.304H156.635V52.528H159.371V45.136C159.371 42.712 160.691 41.464 162.707 41.464C164.699 41.464 166.019 42.712 166.019 45.136V52.528Z" fill="white"/>
<path d="M171.309 45.856C171.309 49.936 174.069 52.744 177.501 52.744C179.709 52.744 181.293 51.688 182.133 50.56V52.528H184.893V39.304H182.133V41.224C181.317 40.144 179.781 39.088 177.549 39.088C174.069 39.088 171.309 41.776 171.309 45.856ZM182.133 45.904C182.133 48.76 180.189 50.368 178.125 50.368C176.085 50.368 174.117 48.712 174.117 45.856C174.117 43 176.085 41.464 178.125 41.464C180.189 41.464 182.133 43.072 182.133 45.904Z" fill="white"/>
<path d="M197.871 52.528H200.583V44.728C200.583 41.032 198.255 39.088 195.159 39.088C193.575 39.088 192.111 39.736 191.223 40.816V39.304H188.487V52.528H191.223V45.136C191.223 42.712 192.543 41.464 194.559 41.464C196.551 41.464 197.871 42.712 197.871 45.136V52.528Z" fill="white"/>
<path d="M203.161 45.904C203.161 50.056 205.849 52.744 209.641 52.744C212.881 52.744 214.993 50.944 215.737 48.352H212.785C212.281 49.72 211.273 50.44 209.641 50.44C207.433 50.44 205.969 48.808 205.969 45.904C205.969 43.024 207.433 41.392 209.641 41.392C211.273 41.392 212.329 42.208 212.785 43.48H215.737C214.993 40.696 212.881 39.088 209.641 39.088C205.849 39.088 203.161 41.776 203.161 45.904Z" fill="white"/>
<path d="M224.031 41.392C226.071 41.392 227.679 42.688 227.727 44.728H220.407C220.695 42.64 222.183 41.392 224.031 41.392ZM230.223 48.592H227.271C226.767 49.624 225.831 50.44 224.151 50.44C222.135 50.44 220.575 49.12 220.383 46.936H230.487C230.559 46.48 230.583 46.048 230.583 45.592C230.583 41.704 227.919 39.088 224.151 39.088C220.239 39.088 217.551 41.752 217.551 45.904C217.551 50.056 220.359 52.744 224.151 52.744C227.391 52.744 229.479 50.896 230.223 48.592Z" fill="white"/>
<path d="M243.14 48.832C242.996 44.056 235.532 45.544 235.532 42.88C235.532 41.992 236.3 41.392 237.764 41.392C239.252 41.392 240.14 42.184 240.236 43.336H242.972C242.828 40.696 240.86 39.088 237.86 39.088C234.74 39.088 232.772 40.792 232.772 42.904C232.772 47.752 240.452 46.264 240.452 48.856C240.452 49.768 239.612 50.44 238.028 50.44C236.516 50.44 235.484 49.552 235.388 48.472H232.556C232.676 50.872 234.908 52.744 238.076 52.744C241.196 52.744 243.14 51.064 243.14 48.832Z" fill="white"/>
</svg>
